HIERARCHY
ROOT Hips
{
  OFFSET -35.2597 29.1586 114.425
  CHANNELS 6 Xposition Yposition Zposition Zrotation Xrotation Yrotation
  JOINT LeftUpLeg
  {
    OFFSET 8.64259 1.95398 -2.38835
    CHANNELS 3 Zrotation Xrotation Yrotation
    JOINT LeftLeg
    {
      OFFSET 43.7702 0 0
      CHANNELS 3 Zrotation Xrotation Yrotation
      JOINT LeftFoot
      {
        OFFSET 40.6238 0 0
        CHANNELS 3 Zrotation Xrotation Yrotation
        JOINT LeftToeBase
        {
          OFFSET 12.7242 0 0
          CHANNELS 3 Zrotation Xrotation Yrotation
          End Site
          {
            OFFSET 0 0 0
          }
        }
      }
    }
  }
  JOINT RightUpLeg
  {
    OFFSET -8.2249 1.95398 -2.59336
    CHANNELS 3 Zrotation Xrotation Yrotation
    JOINT RightLeg
    {
      OFFSET 43.5653 0 0
      CHANNELS 3 Zrotation Xrotation Yrotation
      JOINT RightFoot
      {
        OFFSET 40.6238 0 0
        CHANNELS 3 Zrotation Xrotation Yrotation
        JOINT RightToeBase
        {
          OFFSET 12.7242 0 0
          CHANNELS 3 Zrotation Xrotation Yrotation
          End Site
          {
            OFFSET 0 0 0
          }
        }
      }
    }
  }
  JOINT Spine
  {
    OFFSET 0.165834 0.87714 6.61349
    CHANNELS 3 Zrotation Xrotation Yrotation
    JOINT Spine1
    {
      OFFSET 7.38963 1.71661e-005 0
      CHANNELS 3 Zrotation Xrotation Yrotation
      JOINT Spine2
      {
        OFFSET 11.9445 1.14441e-005 0
        CHANNELS 3 Zrotation Xrotation Yrotation
        JOINT Spine3
        {
          OFFSET 14.7254 4.19617e-005 0
          CHANNELS 3 Zrotation Xrotation Yrotation
          JOINT Spine4
          {
            OFFSET 10.9679 0 0
            CHANNELS 3 Zrotation Xrotation Yrotation
            JOINT RightShoulder
            {
              OFFSET 2.46616 -1.6653 3.69651
              CHANNELS 3 Zrotation Xrotation Yrotation
              JOINT RightArm
              {
                OFFSET 13.0012 0 0
                CHANNELS 3 Zrotation Xrotation Yrotation
                JOINT RightForeArm
                {
                  OFFSET 28.7848 1.62311e-005 0
                  CHANNELS 3 Zrotation Xrotation Yrotation
                  JOINT RightHand
                  {
                    OFFSET 26.5688 1.62095e-005 0
                    CHANNELS 3 Zrotation Xrotation Yrotation
                    End Site
                    {
                      OFFSET 0 0 0
                    }
                  }
                }
              }
            }
            JOINT LeftShoulder
            {
              OFFSET 2.38034 -1.29275 -3.7523
              CHANNELS 3 Zrotation Xrotation Yrotation
              JOINT LeftArm
              {
                OFFSET 16.3182 6.07031e-005 0
                CHANNELS 3 Zrotation Xrotation Yrotation
                JOINT LeftForeArm
                {
                  OFFSET 27.0901 0 0
                  CHANNELS 3 Zrotation Xrotation Yrotation
                  JOINT LeftHand
                  {
                    OFFSET 24.5451 1.51738e-005 0
                    CHANNELS 3 Zrotation Xrotation Yrotation
                    End Site
                    {
                      OFFSET 0 0 0
                    }
                  }
                }
              }
            }
            JOINT Neck
            {
              OFFSET 5.0226 -0.0266342 0
              CHANNELS 3 Zrotation Xrotation Yrotation
              JOINT Head
              {
                OFFSET 6.69364 2.86102e-005 0
                CHANNELS 3 Zrotation Xrotation Yrotation
                End Site
                {
                  OFFSET 0 0 0
                }
              }
            }
          }
        }
      }
    }
  }
}
MOTION
Frames:	7
Frame Time:	0.0416667
28.5203 101.544 -314.597 162.741 -82.3773 162.163 -175.047 -3.72789 89.7199 -11.1084 16.8677 1.08828 63.5902 3.03721 4.09339 27.1096 -1.22707 0.783634 173.35 -4.43258 88.7048 -12.2518 -9.16109 -0.657717 63.8814 -2.28356 0.493564 25.7275 0.782527 1.59893 0.0459156 8.11979 -90.004 10.6342 0.089655 -0.0160933 -1.03674 0.0888591 -0.0200217 -23.5719 0.0903382 0.011595 -3.55928 0.0903426 0.0115975 85.9334 -37.886 -111.222 41.6833 7.2681 -8.85984 -5.75999 -47.9567 -5.73447 -23.7451 3.74223 -23.3651 -87.6784 -59.2876 83.7049 -19.7243 -15.0765 -34.1542 177.453 54.6662 -178.587 32.8328 -8.05303 -29.1181 5.14757 -1.54646 -4.76841 -4.02442 -0.696724 2.08765 
28.4548 101.549 -314.56 160.528 -82.5512 160.204 -174.754 -3.1274 90.1333 -11.5175 16.1472 0.870281 63.9524 3.09015 3.15533 27.3628 -0.947157 0.484555 173.575 -4.51688 89.084 -11.702 -8.98183 -0.627461 63.9909 -2.51115 -0.341378 24.0805 0.718322 3.77168 0.0297593 8.08598 -90.0398 10.702 0.0409674 -0.0827638 -0.968976 0.0372842 -0.0844992 -23.5041 0.0639584 -0.0666185 -3.49148 0.0639426 -0.0666403 85.6224 -37.7281 -111.828 41.7996 7.21933 -8.83944 -5.7208 -47.5999 -5.71393 -23.3201 3.35392 -21.8138 -88.0659 -59.4567 83.2047 -19.5535 -15.201 -33.7544 177.404 55.1257 -178.536 32.6334 -7.92489 -28.8738 4.92118 -1.63815 -4.92867 -3.98937 -0.771053 2.26078 
28.5299 101.566 -314.569 164.594 -82.4124 163.951 -174.863 -3.66561 89.7023 -11.0825 14.9496 0.802725 63.8395 2.97515 2.78197 27.1953 -0.972953 0.367558 173.246 -4.59069 88.5944 -12.0245 -9.58554 -0.651334 64.5512 -2.92467 -0.890624 22.3827 0.713027 5.69371 0.0615266 8.12751 -90.0084 10.6188 0.118721 -0.0275249 -1.05211 0.11739 -0.0327329 -23.5873 0.121503 0.00942797 -3.57466 0.121499 0.00941584 85.6087 -37.6055 -111.902 41.6314 7.35609 -8.58469 -5.73375 -47.6408 -5.72845 -23.4564 3.66568 -23.2288 -88.0714 -59.6804 83.2314 -19.4509 -15.2757 -33.4272 177.277 56.2195 -178.41 32.0416 -7.74348 -28.7478 4.71487 -1.72966 -5.02188 -3.66864 -0.849249 2.36666 
28.4467 101.569 -314.535 164.311 -82.9514 164.089 -174.64 -2.88461 90.2412 -11.5356 15.061 0.737714 64.0668 3.03252 2.89862 26.9982 -0.855315 -0.0609741 173.716 -4.39693 89.2393 -11.4548 -9.11895 -0.699114 64.2052 -2.78509 -0.769502 22.6043 0.543151 5.93125 0.0659167 8.08138 -90.0523 10.7112 0.107236 -0.11366 -0.959749 0.102125 -0.118275 -23.4949 0.136432 -0.0761767 -3.48227 0.136436 -0.076183 85.7244 -37.4795 -111.751 41.8181 7.22283 -8.78925 -5.76203 -47.8308 -5.75253 -23.2138 3.53161 -22.7699 -87.9908 -59.6427 83.3349 -19.4951 -15.2535 -32.799 177.007 58.3578 -178.138 31.0237 -7.42443 -28.4909 4.95015 -1.68774 -4.85773 -3.92736 -0.821849 1.93143 
28.4653 101.557 -314.547 164.909 -83.2121 164.76 -174.612 -2.60087 90.2538 -11.6093 14.9454 0.680061 64.0501 2.97784 2.92355 27.301 -0.794705 0.119514 173.786 -4.43065 89.2707 -11.1338 -9.20135 -0.669336 64.223 -2.84178 -0.702692 22.0225 0.963031 5.36724 0.0743618 8.05989 -90.0472 10.7541 0.12636 -0.105479 -0.916791 0.121592 -0.110949 -23.452 0.152221 -0.0626322 -3.43934 0.152221 -0.0626231 85.6015 -37.7694 -111.848 41.5189 7.35906 -8.79277 -5.75686 -47.8185 -5.75112 -22.8622 3.53235 -23.0558 -88.1054 -59.3925 83.1414 -19.6044 -15.1928 -31.8338 176.6 61.1194 -177.728 29.7121 -7.01309 -28.13 5.13906 -1.58654 -5.13595 -4.15109 -0.672403 2.1305 
28.5394 101.576 -314.521 166.549 -83.0015 166.048 -174.868 -3.07691 89.7932 -11.2937 14.0189 0.809222 64.1845 3.06047 2.3852 26.3694 -1.03281 -0.329143 173.473 -4.19478 88.8163 -11.7636 -9.64782 -0.72414 64.3483 -2.85206 -0.755609 22.3823 0.831601 5.35199 0.0786189 8.08198 -89.9793 10.7099 0.166125 0.0258138 -0.96109 0.167102 0.0184655 -23.4963 0.150685 0.074548 -3.48366 0.150689 0.074538 85.5798 -38.104 -111.75 41.5928 7.31296 -8.84522 -5.74893 -47.7985 -5.7471 -22.9915 3.40572 -22.3251 -88.0524 -58.7336 83.1116 -20.0819 -14.8964 -30.6552 175.882 64.9787 -177.008 27.6619 -6.31864 -27.306 5.09103 -1.60928 -5.77546 -4.05022 -0.593373 2.73732 
28.4615 101.572 -314.48 166.804 -83.3615 166.689 -174.63 -2.4328 90.3421 -11.8326 14.175 0.730631 64.3934 3.12825 2.54959 26.7998 -0.815519 -0.334321 173.853 -4.12007 89.3542 -11.3367 -9.51352 -0.749387 64.0575 -2.78044 -0.896499 22.6116 0.589722 5.79125 0.0904794 8.04714 -90.0308 10.7797 0.165984 -0.0766236 -0.89127 0.162458 -0.083856 -23.4265 0.181337 -0.0231922 -3.41386 0.181343 -0.0231915 85.4521 -38.0455 -111.995 41.4277 7.40713 -8.76545 -5.72892 -47.6982 -5.73374 -22.7814 3.38658 -22.3942 -87.9554 -59.0701 83.2957 -20.0432 -14.9407 -29.6933 174.771 69.2786 -175.894 25.2807 -5.67222 -26.7792 4.97357 -1.66618 -5.5863 -3.8013 -0.681456 2.64139 
